<mxfile host="app.diagrams.net" agent="Mozilla/5.0 (Windows NT 10.0; Win64; x64) AppleWebKit/537.36 (KHTML, like Gecko) Chrome/130.0.0.0 Safari/537.36" version="24.8.2">
  <diagram name="Page-1" id="yod37I6fgVGVok1R1Kww">
    <mxGraphModel dx="1050" dy="1622" grid="1" gridSize="10" guides="1" tooltips="1" connect="1" arrows="1" fold="1" page="1" pageScale="1" pageWidth="850" pageHeight="1100" math="0" shadow="0">
      <root>
        <mxCell id="0" />
        <mxCell id="1" parent="0" />
        <mxCell id="ic63JwhwnCesHwnWXxz1-2" value="Inisialisasi LCD 16x2 &amp; Konfigurasi Pin" style="whiteSpace=wrap;strokeWidth=2;" vertex="1" parent="1">
          <mxGeometry x="149" y="118" width="255" height="66" as="geometry" />
        </mxCell>
        <mxCell id="ic63JwhwnCesHwnWXxz1-3" value="Mulai Loop" style="whiteSpace=wrap;strokeWidth=2;" vertex="1" parent="1">
          <mxGeometry x="207" y="234" width="138" height="48" as="geometry" />
        </mxCell>
        <mxCell id="ic63JwhwnCesHwnWXxz1-4" value="Baca Nilai Analog Suhu dari inputSuhu" style="whiteSpace=wrap;strokeWidth=2;" vertex="1" parent="1">
          <mxGeometry x="68" y="333" width="255" height="66" as="geometry" />
        </mxCell>
        <mxCell id="ic63JwhwnCesHwnWXxz1-5" value="Konversi Nilai Analog ke Tegangan" style="whiteSpace=wrap;strokeWidth=2;" vertex="1" parent="1">
          <mxGeometry x="80" y="449" width="231" height="66" as="geometry" />
        </mxCell>
        <mxCell id="ic63JwhwnCesHwnWXxz1-6" value="Konversi Tegangan ke Suhu dalam °C" style="whiteSpace=wrap;strokeWidth=2;" vertex="1" parent="1">
          <mxGeometry x="70" y="565" width="251" height="66" as="geometry" />
        </mxCell>
        <mxCell id="ic63JwhwnCesHwnWXxz1-7" value="Cetak Suhu &amp; Tegangan ke Serial Monitor" style="whiteSpace=wrap;strokeWidth=2;" vertex="1" parent="1">
          <mxGeometry x="68" y="681" width="254" height="66" as="geometry" />
        </mxCell>
        <mxCell id="ic63JwhwnCesHwnWXxz1-8" value="Apakah Suhu &gt;= 27°C?" style="rhombus;strokeWidth=2;whiteSpace=wrap;" vertex="1" parent="1">
          <mxGeometry x="80" y="797" width="231" height="231" as="geometry" />
        </mxCell>
        <mxCell id="ic63JwhwnCesHwnWXxz1-9" value="Set LED High" style="whiteSpace=wrap;strokeWidth=2;" vertex="1" parent="1">
          <mxGeometry x="20" y="1100" width="151" height="48" as="geometry" />
        </mxCell>
        <mxCell id="ic63JwhwnCesHwnWXxz1-10" value="Set LED Low" style="whiteSpace=wrap;strokeWidth=2;" vertex="1" parent="1">
          <mxGeometry x="221" y="1100" width="148" height="48" as="geometry" />
        </mxCell>
        <mxCell id="ic63JwhwnCesHwnWXxz1-11" value="Tampilkan Suhu pada LCD" style="whiteSpace=wrap;strokeWidth=2;" vertex="1" parent="1">
          <mxGeometry x="173" y="1198" width="244" height="48" as="geometry" />
        </mxCell>
        <mxCell id="ic63JwhwnCesHwnWXxz1-12" value="" style="curved=1;startArrow=none;endArrow=block;exitX=0.5;exitY=1.01;entryX=0.5;entryY=0.01;rounded=0;" edge="1" parent="1" target="ic63JwhwnCesHwnWXxz1-2">
          <mxGeometry relative="1" as="geometry">
            <Array as="points" />
            <mxPoint x="276.5" y="68" as="sourcePoint" />
          </mxGeometry>
        </mxCell>
        <mxCell id="ic63JwhwnCesHwnWXxz1-13" value="" style="curved=1;startArrow=none;endArrow=block;exitX=0.5;exitY=1.01;entryX=0.5;entryY=0.01;rounded=0;" edge="1" parent="1" source="ic63JwhwnCesHwnWXxz1-2" target="ic63JwhwnCesHwnWXxz1-3">
          <mxGeometry relative="1" as="geometry">
            <Array as="points" />
          </mxGeometry>
        </mxCell>
        <mxCell id="ic63JwhwnCesHwnWXxz1-14" value="" style="curved=1;startArrow=none;endArrow=block;exitX=0.21;exitY=1.02;entryX=0.5;entryY=0;rounded=0;" edge="1" parent="1" source="ic63JwhwnCesHwnWXxz1-3" target="ic63JwhwnCesHwnWXxz1-4">
          <mxGeometry relative="1" as="geometry">
            <Array as="points">
              <mxPoint x="195" y="308" />
            </Array>
          </mxGeometry>
        </mxCell>
        <mxCell id="ic63JwhwnCesHwnWXxz1-15" value="" style="curved=1;startArrow=none;endArrow=block;exitX=0.5;exitY=1;entryX=0.5;entryY=0;rounded=0;" edge="1" parent="1" source="ic63JwhwnCesHwnWXxz1-4" target="ic63JwhwnCesHwnWXxz1-5">
          <mxGeometry relative="1" as="geometry">
            <Array as="points" />
          </mxGeometry>
        </mxCell>
        <mxCell id="ic63JwhwnCesHwnWXxz1-16" value="" style="curved=1;startArrow=none;endArrow=block;exitX=0.5;exitY=1;entryX=0.5;entryY=0;rounded=0;" edge="1" parent="1" source="ic63JwhwnCesHwnWXxz1-5" target="ic63JwhwnCesHwnWXxz1-6">
          <mxGeometry relative="1" as="geometry">
            <Array as="points" />
          </mxGeometry>
        </mxCell>
        <mxCell id="ic63JwhwnCesHwnWXxz1-17" value="" style="curved=1;startArrow=none;endArrow=block;exitX=0.5;exitY=1;entryX=0.5;entryY=0;rounded=0;" edge="1" parent="1" source="ic63JwhwnCesHwnWXxz1-6" target="ic63JwhwnCesHwnWXxz1-7">
          <mxGeometry relative="1" as="geometry">
            <Array as="points" />
          </mxGeometry>
        </mxCell>
        <mxCell id="ic63JwhwnCesHwnWXxz1-18" value="" style="curved=1;startArrow=none;endArrow=block;exitX=0.5;exitY=1;entryX=0.5;entryY=0;rounded=0;" edge="1" parent="1" source="ic63JwhwnCesHwnWXxz1-7" target="ic63JwhwnCesHwnWXxz1-8">
          <mxGeometry relative="1" as="geometry">
            <Array as="points" />
          </mxGeometry>
        </mxCell>
        <mxCell id="ic63JwhwnCesHwnWXxz1-19" value="Yes" style="curved=1;startArrow=none;endArrow=block;exitX=0.17;exitY=1;entryX=0.5;entryY=0;rounded=0;" edge="1" parent="1" source="ic63JwhwnCesHwnWXxz1-8" target="ic63JwhwnCesHwnWXxz1-9">
          <mxGeometry relative="1" as="geometry">
            <Array as="points">
              <mxPoint x="95" y="1064" />
            </Array>
          </mxGeometry>
        </mxCell>
        <mxCell id="ic63JwhwnCesHwnWXxz1-20" value="No" style="curved=1;startArrow=none;endArrow=block;exitX=0.83;exitY=1;entryX=0.5;entryY=0;rounded=0;" edge="1" parent="1" source="ic63JwhwnCesHwnWXxz1-8" target="ic63JwhwnCesHwnWXxz1-10">
          <mxGeometry relative="1" as="geometry">
            <Array as="points">
              <mxPoint x="295" y="1064" />
            </Array>
          </mxGeometry>
        </mxCell>
        <mxCell id="ic63JwhwnCesHwnWXxz1-21" value="" style="curved=1;startArrow=none;endArrow=block;exitX=0.5;exitY=1.01;entryX=0.1;entryY=0.01;rounded=0;" edge="1" parent="1" source="ic63JwhwnCesHwnWXxz1-9" target="ic63JwhwnCesHwnWXxz1-11">
          <mxGeometry relative="1" as="geometry">
            <Array as="points">
              <mxPoint x="95" y="1173" />
            </Array>
          </mxGeometry>
        </mxCell>
        <mxCell id="ic63JwhwnCesHwnWXxz1-22" value="" style="curved=1;startArrow=none;endArrow=block;exitX=0.5;exitY=1.01;entryX=0.5;entryY=0.01;rounded=0;" edge="1" parent="1" source="ic63JwhwnCesHwnWXxz1-10" target="ic63JwhwnCesHwnWXxz1-11">
          <mxGeometry relative="1" as="geometry">
            <Array as="points" />
          </mxGeometry>
        </mxCell>
        <mxCell id="ic63JwhwnCesHwnWXxz1-23" value="" style="curved=1;startArrow=none;endArrow=block;exitX=0.77;exitY=0.01;entryX=1;entryY=0.97;rounded=0;" edge="1" parent="1" source="ic63JwhwnCesHwnWXxz1-11" target="ic63JwhwnCesHwnWXxz1-3">
          <mxGeometry relative="1" as="geometry">
            <Array as="points">
              <mxPoint x="431" y="1173" />
              <mxPoint x="431" y="308" />
            </Array>
          </mxGeometry>
        </mxCell>
        <mxCell id="ic63JwhwnCesHwnWXxz1-27" value="Mulai" style="ellipse;whiteSpace=wrap;html=1;" vertex="1" parent="1">
          <mxGeometry x="216" y="-10" width="120" height="80" as="geometry" />
        </mxCell>
      </root>
    </mxGraphModel>
  </diagram>
</mxfile>
